<mxfile host="Electron" agent="Mozilla/5.0 (Windows NT 10.0; Win64; x64) AppleWebKit/537.36 (KHTML, like Gecko) draw.io/26.0.16 Chrome/132.0.6834.196 Electron/34.2.0 Safari/537.36" version="26.0.16">
  <diagram name="Page-1" id="Z24QSPtJqHIgDyFdkR6d">
    <mxGraphModel dx="819" dy="478" grid="1" gridSize="10" guides="1" tooltips="1" connect="1" arrows="1" fold="1" page="1" pageScale="1" pageWidth="1169" pageHeight="827" math="0" shadow="0">
      <root>
        <mxCell id="0" />
        <mxCell id="1" parent="0" />
        <mxCell id="fQidzsPtYpPsnAQ1wcoj-1" value="" style="rounded=0;whiteSpace=wrap;html=1;fillColor=#e1d5e7;strokeColor=#000000;strokeWidth=2;" vertex="1" parent="1">
          <mxGeometry x="120" y="320" width="520" height="160" as="geometry" />
        </mxCell>
        <mxCell id="fQidzsPtYpPsnAQ1wcoj-14" value="" style="group" vertex="1" connectable="0" parent="1">
          <mxGeometry x="440" y="320" width="170" height="100" as="geometry" />
        </mxCell>
        <mxCell id="fQidzsPtYpPsnAQ1wcoj-3" value="" style="rounded=0;whiteSpace=wrap;html=1;fillColor=#99FFFF;strokeColor=none;" vertex="1" parent="fQidzsPtYpPsnAQ1wcoj-14">
          <mxGeometry width="169.99999999999994" height="85.71428571428572" as="geometry" />
        </mxCell>
        <mxCell id="fQidzsPtYpPsnAQ1wcoj-4" value="" style="rounded=1;whiteSpace=wrap;html=1;fillColor=#99FFFF;strokeColor=none;" vertex="1" parent="fQidzsPtYpPsnAQ1wcoj-14">
          <mxGeometry y="14.285714285714286" width="169.99999999999994" height="85.71428571428572" as="geometry" />
        </mxCell>
        <mxCell id="fQidzsPtYpPsnAQ1wcoj-8" value="" style="endArrow=none;html=1;rounded=0;edgeStyle=orthogonalEdgeStyle;elbow=vertical;curved=1;exitX=0.896;exitY=1.004;exitDx=0;exitDy=0;exitPerimeter=0;" edge="1" parent="fQidzsPtYpPsnAQ1wcoj-14">
          <mxGeometry width="50" height="50" relative="1" as="geometry">
            <mxPoint x="149.48666666666662" y="100" as="sourcePoint" />
            <mxPoint x="169.99999999999994" y="83.94285714285714" as="targetPoint" />
          </mxGeometry>
        </mxCell>
        <mxCell id="fQidzsPtYpPsnAQ1wcoj-9" value="" style="endArrow=none;html=1;rounded=0;edgeStyle=orthogonalEdgeStyle;curved=1;" edge="1" parent="fQidzsPtYpPsnAQ1wcoj-14">
          <mxGeometry width="50" height="50" relative="1" as="geometry">
            <mxPoint x="14.166666666666664" y="100" as="sourcePoint" />
            <mxPoint y="85.71428571428572" as="targetPoint" />
          </mxGeometry>
        </mxCell>
        <mxCell id="fQidzsPtYpPsnAQ1wcoj-10" value="" style="endArrow=none;html=1;rounded=0;exitX=0.082;exitY=1;exitDx=0;exitDy=0;exitPerimeter=0;" edge="1" parent="fQidzsPtYpPsnAQ1wcoj-14" source="fQidzsPtYpPsnAQ1wcoj-4">
          <mxGeometry width="50" height="50" relative="1" as="geometry">
            <mxPoint x="19.83333333333333" y="105.71428571428571" as="sourcePoint" />
            <mxPoint x="151.58333333333331" y="100" as="targetPoint" />
          </mxGeometry>
        </mxCell>
        <mxCell id="fQidzsPtYpPsnAQ1wcoj-11" value="" style="endArrow=none;html=1;rounded=0;exitX=0;exitY=0.833;exitDx=0;exitDy=0;exitPerimeter=0;entryX=0;entryY=0;entryDx=0;entryDy=0;" edge="1" parent="fQidzsPtYpPsnAQ1wcoj-14" source="fQidzsPtYpPsnAQ1wcoj-4" target="fQidzsPtYpPsnAQ1wcoj-3">
          <mxGeometry width="50" height="50" relative="1" as="geometry">
            <mxPoint x="-14.166666666666664" y="85.71428571428572" as="sourcePoint" />
            <mxPoint x="56.66666666666666" y="14.285714285714286" as="targetPoint" />
          </mxGeometry>
        </mxCell>
        <mxCell id="fQidzsPtYpPsnAQ1wcoj-12" value="" style="endArrow=none;html=1;rounded=0;exitX=0;exitY=0;exitDx=0;exitDy=0;entryX=1;entryY=0;entryDx=0;entryDy=0;" edge="1" parent="fQidzsPtYpPsnAQ1wcoj-14" source="fQidzsPtYpPsnAQ1wcoj-3" target="fQidzsPtYpPsnAQ1wcoj-3">
          <mxGeometry width="50" height="50" relative="1" as="geometry">
            <mxPoint x="14.166666666666664" y="57.142857142857146" as="sourcePoint" />
            <mxPoint x="84.99999999999997" y="-14.285714285714286" as="targetPoint" />
          </mxGeometry>
        </mxCell>
        <mxCell id="fQidzsPtYpPsnAQ1wcoj-13" value="" style="endArrow=none;html=1;rounded=0;entryX=1;entryY=0;entryDx=0;entryDy=0;" edge="1" parent="fQidzsPtYpPsnAQ1wcoj-14" target="fQidzsPtYpPsnAQ1wcoj-3">
          <mxGeometry width="50" height="50" relative="1" as="geometry">
            <mxPoint x="169.99999999999994" y="85.71428571428572" as="sourcePoint" />
            <mxPoint x="169.99999999999994" y="14.285714285714286" as="targetPoint" />
          </mxGeometry>
        </mxCell>
        <mxCell id="fQidzsPtYpPsnAQ1wcoj-28" value="&lt;h1 style=&quot;margin-top: 0px;&quot;&gt;&lt;font style=&quot;font-size: 26px;&quot;&gt;N&lt;/font&gt;&lt;/h1&gt;" style="text;html=1;whiteSpace=wrap;overflow=hidden;rounded=0;align=center;" vertex="1" parent="fQidzsPtYpPsnAQ1wcoj-14">
          <mxGeometry x="60.71428571428571" y="25.00000000000003" width="48.57142857142857" height="50" as="geometry" />
        </mxCell>
        <mxCell id="fQidzsPtYpPsnAQ1wcoj-24" value="" style="rounded=0;whiteSpace=wrap;html=1;fillColor=#ffe6cc;strokeColor=#000000;strokeWidth=2;" vertex="1" parent="1">
          <mxGeometry x="190" y="80" width="90" height="240" as="geometry" />
        </mxCell>
        <mxCell id="fQidzsPtYpPsnAQ1wcoj-29" value="&lt;h1 style=&quot;margin-top: 0px;&quot;&gt;&lt;font style=&quot;font-size: 26px;&quot;&gt;P&lt;/font&gt;&lt;/h1&gt;" style="text;html=1;whiteSpace=wrap;overflow=hidden;rounded=0;align=center;" vertex="1" parent="1">
          <mxGeometry x="360" y="340" width="40" height="40" as="geometry" />
        </mxCell>
        <mxCell id="fQidzsPtYpPsnAQ1wcoj-32" value="" style="rounded=0;whiteSpace=wrap;html=1;fillColor=#ffe6cc;strokeColor=#000000;strokeWidth=2;" vertex="1" parent="1">
          <mxGeometry x="485" y="220" width="80" height="100" as="geometry" />
        </mxCell>
        <mxCell id="fQidzsPtYpPsnAQ1wcoj-34" value="&lt;font style=&quot;font-size: 18px;&quot;&gt;&lt;b&gt;Bit&lt;/b&gt;&lt;/font&gt;&lt;div&gt;&lt;font style=&quot;font-size: 18px;&quot;&gt;&lt;b&gt;Line&lt;/b&gt;&lt;/font&gt;&lt;/div&gt;" style="text;html=1;align=center;verticalAlign=middle;whiteSpace=wrap;rounded=0;" vertex="1" parent="1">
          <mxGeometry x="205" y="175" width="60" height="50" as="geometry" />
        </mxCell>
        <mxCell id="fQidzsPtYpPsnAQ1wcoj-37" value="" style="rounded=0;whiteSpace=wrap;html=1;fillColor=#ffe6cc;strokeColor=#000000;strokeWidth=2;" vertex="1" parent="1">
          <mxGeometry x="485" y="80" width="80" height="60" as="geometry" />
        </mxCell>
        <mxCell id="fQidzsPtYpPsnAQ1wcoj-39" value="" style="group;strokeWidth=2;" vertex="1" connectable="0" parent="1">
          <mxGeometry x="300" y="250" width="170" height="60" as="geometry" />
        </mxCell>
        <mxCell id="fQidzsPtYpPsnAQ1wcoj-30" value="" style="rounded=0;whiteSpace=wrap;html=1;fillColor=#f5f5f5;fontColor=#333333;strokeColor=#000000;strokeWidth=2;" vertex="1" parent="fQidzsPtYpPsnAQ1wcoj-39">
          <mxGeometry width="170" height="60" as="geometry" />
        </mxCell>
        <mxCell id="fQidzsPtYpPsnAQ1wcoj-31" value="&lt;h1 style=&quot;margin-top: 0px;&quot;&gt;&lt;font style=&quot;font-size: 18px;&quot;&gt;Word Line&lt;/font&gt;&lt;/h1&gt;" style="text;html=1;whiteSpace=wrap;overflow=hidden;rounded=0;align=center;" vertex="1" parent="fQidzsPtYpPsnAQ1wcoj-39">
          <mxGeometry y="10" width="170" height="40" as="geometry" />
        </mxCell>
        <mxCell id="fQidzsPtYpPsnAQ1wcoj-40" value="" style="group;strokeWidth=2;" vertex="1" connectable="0" parent="1">
          <mxGeometry x="450" y="140" width="150" height="80" as="geometry" />
        </mxCell>
        <mxCell id="fQidzsPtYpPsnAQ1wcoj-35" value="" style="rounded=0;whiteSpace=wrap;html=1;fillColor=#ffe6cc;strokeColor=#000000;strokeWidth=2;" vertex="1" parent="fQidzsPtYpPsnAQ1wcoj-40">
          <mxGeometry width="150" height="80" as="geometry" />
        </mxCell>
        <mxCell id="fQidzsPtYpPsnAQ1wcoj-36" value="" style="rounded=0;whiteSpace=wrap;html=1;fillColor=#dae8fc;strokeColor=#000000;strokeWidth=2;" vertex="1" parent="fQidzsPtYpPsnAQ1wcoj-40">
          <mxGeometry y="10" width="150" height="60" as="geometry" />
        </mxCell>
        <mxCell id="fQidzsPtYpPsnAQ1wcoj-38" value="&lt;span style=&quot;font-size: 18px;&quot;&gt;&lt;b&gt;Ferroelectric&lt;/b&gt;&lt;/span&gt;" style="text;html=1;align=center;verticalAlign=middle;whiteSpace=wrap;rounded=0;" vertex="1" parent="fQidzsPtYpPsnAQ1wcoj-40">
          <mxGeometry x="6.25" y="15" width="137.5" height="50" as="geometry" />
        </mxCell>
        <mxCell id="fQidzsPtYpPsnAQ1wcoj-42" value="" style="group" vertex="1" connectable="0" parent="1">
          <mxGeometry x="150" y="320" width="170" height="100" as="geometry" />
        </mxCell>
        <mxCell id="fQidzsPtYpPsnAQ1wcoj-43" value="" style="rounded=0;whiteSpace=wrap;html=1;fillColor=#99FFFF;strokeColor=none;" vertex="1" parent="fQidzsPtYpPsnAQ1wcoj-42">
          <mxGeometry width="169.99999999999994" height="85.71428571428572" as="geometry" />
        </mxCell>
        <mxCell id="fQidzsPtYpPsnAQ1wcoj-44" value="" style="rounded=1;whiteSpace=wrap;html=1;fillColor=#99FFFF;strokeColor=none;" vertex="1" parent="fQidzsPtYpPsnAQ1wcoj-42">
          <mxGeometry y="14.285714285714286" width="169.99999999999994" height="85.71428571428572" as="geometry" />
        </mxCell>
        <mxCell id="fQidzsPtYpPsnAQ1wcoj-45" value="" style="endArrow=none;html=1;rounded=0;edgeStyle=orthogonalEdgeStyle;elbow=vertical;curved=1;exitX=0.896;exitY=1.004;exitDx=0;exitDy=0;exitPerimeter=0;" edge="1" parent="fQidzsPtYpPsnAQ1wcoj-42">
          <mxGeometry width="50" height="50" relative="1" as="geometry">
            <mxPoint x="149.48666666666662" y="100" as="sourcePoint" />
            <mxPoint x="169.99999999999994" y="83.94285714285714" as="targetPoint" />
          </mxGeometry>
        </mxCell>
        <mxCell id="fQidzsPtYpPsnAQ1wcoj-46" value="" style="endArrow=none;html=1;rounded=0;edgeStyle=orthogonalEdgeStyle;curved=1;" edge="1" parent="fQidzsPtYpPsnAQ1wcoj-42">
          <mxGeometry width="50" height="50" relative="1" as="geometry">
            <mxPoint x="14.166666666666664" y="100" as="sourcePoint" />
            <mxPoint y="85.71428571428572" as="targetPoint" />
          </mxGeometry>
        </mxCell>
        <mxCell id="fQidzsPtYpPsnAQ1wcoj-47" value="" style="endArrow=none;html=1;rounded=0;exitX=0.082;exitY=1;exitDx=0;exitDy=0;exitPerimeter=0;" edge="1" parent="fQidzsPtYpPsnAQ1wcoj-42" source="fQidzsPtYpPsnAQ1wcoj-44">
          <mxGeometry width="50" height="50" relative="1" as="geometry">
            <mxPoint x="19.83333333333333" y="105.71428571428571" as="sourcePoint" />
            <mxPoint x="151.58333333333331" y="100" as="targetPoint" />
          </mxGeometry>
        </mxCell>
        <mxCell id="fQidzsPtYpPsnAQ1wcoj-48" value="" style="endArrow=none;html=1;rounded=0;exitX=0;exitY=0.833;exitDx=0;exitDy=0;exitPerimeter=0;entryX=0;entryY=0;entryDx=0;entryDy=0;" edge="1" parent="fQidzsPtYpPsnAQ1wcoj-42" source="fQidzsPtYpPsnAQ1wcoj-44" target="fQidzsPtYpPsnAQ1wcoj-43">
          <mxGeometry width="50" height="50" relative="1" as="geometry">
            <mxPoint x="-14.166666666666664" y="85.71428571428572" as="sourcePoint" />
            <mxPoint x="56.66666666666666" y="14.285714285714286" as="targetPoint" />
          </mxGeometry>
        </mxCell>
        <mxCell id="fQidzsPtYpPsnAQ1wcoj-49" value="" style="endArrow=none;html=1;rounded=0;exitX=0;exitY=0;exitDx=0;exitDy=0;entryX=1;entryY=0;entryDx=0;entryDy=0;" edge="1" parent="fQidzsPtYpPsnAQ1wcoj-42" source="fQidzsPtYpPsnAQ1wcoj-43" target="fQidzsPtYpPsnAQ1wcoj-43">
          <mxGeometry width="50" height="50" relative="1" as="geometry">
            <mxPoint x="14.166666666666664" y="57.142857142857146" as="sourcePoint" />
            <mxPoint x="84.99999999999997" y="-14.285714285714286" as="targetPoint" />
          </mxGeometry>
        </mxCell>
        <mxCell id="fQidzsPtYpPsnAQ1wcoj-50" value="" style="endArrow=none;html=1;rounded=0;entryX=1;entryY=0;entryDx=0;entryDy=0;" edge="1" parent="fQidzsPtYpPsnAQ1wcoj-42" target="fQidzsPtYpPsnAQ1wcoj-43">
          <mxGeometry width="50" height="50" relative="1" as="geometry">
            <mxPoint x="169.99999999999994" y="85.71428571428572" as="sourcePoint" />
            <mxPoint x="169.99999999999994" y="14.285714285714286" as="targetPoint" />
          </mxGeometry>
        </mxCell>
        <mxCell id="fQidzsPtYpPsnAQ1wcoj-51" value="&lt;h1 style=&quot;margin-top: 0px;&quot;&gt;&lt;font style=&quot;font-size: 26px;&quot;&gt;N&lt;/font&gt;&lt;/h1&gt;" style="text;html=1;whiteSpace=wrap;overflow=hidden;rounded=0;align=center;" vertex="1" parent="fQidzsPtYpPsnAQ1wcoj-42">
          <mxGeometry x="60.71428571428571" y="25.00000000000003" width="48.57142857142857" height="50" as="geometry" />
        </mxCell>
      </root>
    </mxGraphModel>
  </diagram>
</mxfile>
